<svg width="48" height="48" viewBox="0 0 48 48" fill="none" xmlns="http://www.w3.org/2000/svg">
<g clip-path="url(#clip0)">
<path d="M10.0846 30.3328C10.0846 33.108 7.81752 35.3751 5.0423 35.3751C2.26708 35.3751 0 33.108 0 30.3328C0 27.5576 2.26708 25.2905 5.0423 25.2905H10.0846V30.3328Z" fill="#E01E5A"/>
<path d="M12.6255 30.3328C12.6255 27.5576 14.8926 25.2905 17.6678 25.2905C20.443 25.2905 22.7101 27.5576 22.7101 30.3328V42.9581C22.7101 45.7333 20.443 48.0004 17.6678 48.0004C14.8926 48.0004 12.6255 45.7333 12.6255 42.9581V30.3328Z" fill="#E01E5A"/>
<path d="M17.6678 10.0846C14.8926 10.0846 12.6255 7.81752 12.6255 5.0423C12.6255 2.26708 14.8926 0 17.6678 0C20.443 0 22.7101 2.26708 22.7101 5.0423V10.0846H17.6678Z" fill="#36C5F0"/>
<path d="M17.6676 12.6204C20.4428 12.6204 22.7099 14.8875 22.7099 17.6627C22.7099 20.4379 20.4428 22.705 17.6676 22.705H5.0423C2.26708 22.705 0 20.4379 0 17.6627C0 14.8875 2.26708 12.6204 5.0423 12.6204H17.6676Z" fill="#36C5F0"/>
<path d="M37.9147 17.6627C37.9147 14.8875 40.1818 12.6204 42.957 12.6204C45.7322 12.6204 47.9993 14.8875 47.9993 17.6627C47.9993 20.4379 45.7322 22.705 42.957 22.705H37.9147V17.6627Z" fill="#2EB67D"/>
<path d="M35.3746 17.6676C35.3746 20.4428 33.1076 22.7099 30.3323 22.7099C27.5571 22.7099 25.29 20.4428 25.29 17.6676V5.0423C25.29 2.26708 27.5571 0 30.3323 0C33.1076 0 35.3746 2.26708 35.3746 5.0423V17.6676Z" fill="#2EB67D"/>
<path d="M30.3323 37.9126C33.1076 37.9126 35.3746 40.1797 35.3746 42.9549C35.3746 45.7301 33.1076 47.9972 30.3323 47.9972C27.5571 47.9972 25.29 45.7301 25.29 42.9549V37.9126H30.3323Z" fill="#ECB22E"/>
<path d="M30.3323 35.3751C27.5571 35.3751 25.29 33.108 25.29 30.3328C25.29 27.5576 27.5571 25.2905 30.3323 25.2905H42.9576C45.7329 25.2905 47.9999 27.5576 47.9999 30.3328C47.9999 33.108 45.7329 35.3751 42.9576 35.3751H30.3323Z" fill="#ECB22E"/>
</g>
<defs>
<clipPath id="clip0">
<rect width="48" height="48" fill="white"/>
</clipPath>
</defs>
</svg>
