<svg width="48" height="48" viewBox="0 0 48 48" fill="none" xmlns="http://www.w3.org/2000/svg">
<path d="M19.9791 10.634C21.5256 9.00111 23.6787 7.98845 26.0599 7.98845C29.2253 7.98845 31.987 9.77705 33.4576 12.4323C34.7357 11.8536 36.1503 11.5318 37.6387 11.5318C43.3479 11.5318 47.9764 16.2629 47.9764 22.0987C47.9764 27.9352 43.3479 32.6662 37.6387 32.6662C36.942 32.6662 36.261 32.5956 35.6025 32.4607C34.3074 34.8016 31.8394 36.3833 29.0067 36.3833C27.8209 36.3833 26.6993 36.1057 25.7006 35.6122C24.3877 38.7415 21.3289 40.9358 17.7639 40.9358C14.0514 40.9358 10.8874 38.5553 9.67288 35.2169C9.14213 35.3312 8.59225 35.3907 8.02803 35.3907C3.60784 35.3907 0.0244141 31.7221 0.0244141 27.1959C0.0244141 24.1628 1.63443 21.5145 4.02656 20.0976C3.53406 18.9492 3.26015 17.6818 3.26015 16.3494C3.26015 11.1441 7.43034 6.92456 12.5739 6.92456C15.5938 6.92456 18.2776 8.37953 19.9791 10.634Z" fill="#00A1E0"/>
<path d="M6.96958 24.5617C6.93952 24.6413 6.98051 24.6579 6.99007 24.6718C7.08024 24.7382 7.17177 24.786 7.26398 24.8393C7.75307 25.1023 8.21483 25.1792 8.69776 25.1792C9.68139 25.1792 10.2921 24.6489 10.2921 23.7955V23.7789C10.2921 22.9898 9.60284 22.7032 8.95596 22.4962L8.87195 22.4686C8.38423 22.308 7.96345 22.1695 7.96345 21.8442V21.8269C7.96345 21.5486 8.20936 21.3438 8.59052 21.3438C9.01403 21.3438 9.51677 21.4863 9.84055 21.6677C9.84055 21.6677 9.9355 21.73 9.97033 21.6365C9.98946 21.5867 10.1534 21.1396 10.1705 21.0911C10.1889 21.0385 10.1561 20.9997 10.1227 20.979C9.75312 20.7512 9.24217 20.5955 8.71347 20.5955L8.61511 20.5962C7.71481 20.5962 7.08638 21.1472 7.08638 21.937V21.9536C7.08638 22.7863 7.77971 23.0562 8.42931 23.2445L8.53382 23.277C9.0072 23.4245 9.41499 23.5511 9.41499 23.8889V23.9055C9.41499 24.2142 9.14996 24.4441 8.72235 24.4441C8.55637 24.4441 8.02698 24.4406 7.45525 24.0744C7.38625 24.0336 7.34595 24.0038 7.29267 23.9713C7.26467 23.9533 7.19431 23.9221 7.16357 24.0163L6.96958 24.5617Z" fill="white"/>
<path d="M21.3695 24.5617C21.3394 24.6413 21.3804 24.6579 21.39 24.6718C21.4801 24.7382 21.5717 24.786 21.6639 24.8393C22.153 25.1023 22.6147 25.1792 23.0977 25.1792C24.0813 25.1792 24.692 24.6489 24.692 23.7955V23.7789C24.692 22.9898 24.0027 22.7032 23.3559 22.4962L23.2719 22.4686C22.7841 22.308 22.3634 22.1695 22.3634 21.8442V21.8269C22.3634 21.5486 22.6093 21.3438 22.9904 21.3438C23.4139 21.3438 23.9167 21.4863 24.2405 21.6677C24.2405 21.6677 24.3354 21.73 24.3702 21.6365C24.3894 21.5867 24.5533 21.1396 24.5704 21.0911C24.5888 21.0385 24.556 20.9997 24.5226 20.979C24.153 20.7512 23.6421 20.5955 23.1134 20.5955L23.015 20.5962C22.1147 20.5962 21.4863 21.1472 21.4863 21.937V21.9536C21.4863 22.7863 22.1796 23.0562 22.8292 23.2445L22.9337 23.277C23.4071 23.4245 23.8156 23.5511 23.8156 23.8889V23.9055C23.8156 24.2142 23.5499 24.4441 23.1223 24.4441C22.9563 24.4441 22.4269 24.4406 21.8551 24.0744C21.7862 24.0336 21.7452 24.0052 21.6933 23.9713C21.6755 23.9595 21.5922 23.927 21.5635 24.0163L21.3695 24.5617Z" fill="white"/>
<path d="M31.1997 22.8903C31.1997 23.3728 31.1109 23.7528 30.9361 24.0214C30.7632 24.2872 30.5016 24.4166 30.1369 24.4166C29.7714 24.4166 29.5112 24.2879 29.3411 24.0214C29.1689 23.7535 29.0815 23.3728 29.0815 22.8903C29.0815 22.4086 29.1689 22.0293 29.3411 21.7635C29.5112 21.5004 29.7714 21.3724 30.1369 21.3724C30.5016 21.3724 30.7632 21.5004 30.9367 21.7635C31.1109 22.0293 31.1997 22.4086 31.1997 22.8903ZM32.0208 21.996C31.9402 21.7199 31.8145 21.4762 31.6471 21.2734C31.4798 21.0699 31.268 20.9065 31.0167 20.7875C30.766 20.6691 30.4695 20.6089 30.1369 20.6089C29.8035 20.6089 29.5071 20.6691 29.2564 20.7875C29.005 20.9065 28.7932 21.0699 28.6252 21.2734C28.4585 21.4769 28.3329 21.7205 28.2516 21.996C28.1716 22.2708 28.1313 22.5712 28.1313 22.8903C28.1313 23.2094 28.1716 23.5105 28.2516 23.7846C28.3329 24.0601 28.4579 24.3038 28.6259 24.5073C28.7932 24.7108 29.0057 24.8734 29.2564 24.989C29.5077 25.1046 29.8035 25.1635 30.1369 25.1635C30.4695 25.1635 30.7653 25.1046 31.0167 24.989C31.2674 24.8734 31.4798 24.7108 31.6471 24.5073C31.8145 24.3045 31.9402 24.0608 32.0208 23.7846C32.1014 23.5098 32.1417 23.2087 32.1417 22.8903C32.1417 22.5719 32.1014 22.2708 32.0208 21.996Z" fill="white"/>
<path d="M38.7633 24.2873C38.736 24.2063 38.6588 24.2368 38.6588 24.2368C38.5392 24.2832 38.4122 24.3261 38.2769 24.3475C38.1396 24.369 37.9887 24.3801 37.8268 24.3801C37.4292 24.3801 37.1136 24.2603 36.8876 24.0236C36.6608 23.7869 36.5337 23.4041 36.5351 22.8863C36.5364 22.415 36.6485 22.0606 36.85 21.7906C37.0501 21.5221 37.3548 21.3843 37.7612 21.3843C38.1 21.3843 38.3582 21.4238 38.6287 21.5103C38.6287 21.5103 38.6936 21.5387 38.7243 21.4528C38.7961 21.2507 38.8493 21.106 38.9258 20.8839C38.9477 20.8209 38.8944 20.7939 38.8753 20.7863C38.7687 20.744 38.5174 20.6755 38.3275 20.6464C38.1499 20.6188 37.9422 20.6042 37.7113 20.6042C37.3664 20.6042 37.059 20.6637 36.796 20.7828C36.5337 20.9012 36.311 21.0645 36.1348 21.268C35.9586 21.4715 35.8247 21.7152 35.7352 21.9907C35.6464 22.2655 35.6013 22.5673 35.6013 22.8863C35.6013 23.5765 35.7851 24.1344 36.1478 24.5427C36.5112 24.9525 37.057 25.1609 37.7687 25.1609C38.1895 25.1609 38.6212 25.0743 38.9313 24.9504C38.9313 24.9504 38.9907 24.9214 38.9648 24.8515L38.7633 24.2873Z" fill="white"/>
<path d="M40.1999 22.4275C40.2388 22.1596 40.3119 21.9367 40.4246 21.763C40.5947 21.4993 40.8542 21.3546 41.219 21.3546C41.5838 21.3546 41.8249 21.5 41.9977 21.763C42.1125 21.9367 42.1623 22.1693 42.1822 22.4275H40.1999ZM42.9643 21.8384C42.8946 21.5719 42.7218 21.3027 42.6084 21.1795C42.4294 20.9843 42.2546 20.8479 42.0811 20.7718C41.8543 20.6735 41.5824 20.6084 41.2846 20.6084C40.9376 20.6084 40.6227 20.6673 40.3672 20.7891C40.1111 20.9109 39.8959 21.077 39.7272 21.284C39.5584 21.4903 39.4314 21.736 39.3508 22.0149C39.2695 22.2925 39.2285 22.595 39.2285 22.9141C39.2285 23.2387 39.2709 23.5412 39.3549 23.8132C39.4396 24.0873 39.5748 24.3289 39.7579 24.529C39.9403 24.7304 40.1753 24.8882 40.4567 24.9983C40.7361 25.1076 41.0756 25.1644 41.4656 25.1637C42.2682 25.1609 42.691 24.9796 42.8652 24.882C42.896 24.8647 42.9253 24.8342 42.8885 24.747L42.7068 24.2313C42.6794 24.1545 42.6022 24.1829 42.6022 24.1829C42.4035 24.2576 42.1207 24.3919 41.4615 24.3905C41.0305 24.3898 40.7108 24.2611 40.5107 24.0597C40.3051 23.8534 40.2046 23.5502 40.1869 23.1224L42.9663 23.1252C42.9663 23.1252 43.0394 23.1238 43.0469 23.0518C43.0497 23.0214 43.1426 22.4732 42.9643 21.8384Z" fill="white"/>
<path d="M17.9406 22.4275C17.9802 22.1596 18.0526 21.9367 18.1653 21.763C18.3354 21.4993 18.595 21.3546 18.9597 21.3546C19.3245 21.3546 19.5656 21.5 19.7391 21.763C19.8532 21.9367 19.9031 22.1693 19.9229 22.4275H17.9406ZM20.7043 21.8384C20.6346 21.5719 20.4625 21.3027 20.3491 21.1795C20.1701 20.9843 19.9953 20.8479 19.8218 20.7718C19.595 20.6735 19.3231 20.6084 19.0253 20.6084C18.679 20.6084 18.3634 20.6673 18.1079 20.7891C17.8518 20.9109 17.6366 21.077 17.4679 21.284C17.2992 21.4903 17.1721 21.736 17.0915 22.0149C17.0109 22.2925 16.9692 22.595 16.9692 22.9141C16.9692 23.2387 17.0116 23.5412 17.0956 23.8132C17.1803 24.0873 17.3156 24.3289 17.4986 24.529C17.681 24.7304 17.916 24.8882 18.1974 24.9983C18.4768 25.1076 18.8163 25.1644 19.2063 25.1637C20.0089 25.1609 20.4318 24.9796 20.6059 24.882C20.6367 24.8647 20.666 24.8342 20.6292 24.747L20.4481 24.2313C20.4201 24.1545 20.343 24.1829 20.343 24.1829C20.1442 24.2576 19.8621 24.3919 19.2015 24.3905C18.7712 24.3898 18.4515 24.2611 18.2514 24.0597C18.0458 23.8534 17.9454 23.5502 17.9276 23.1224L20.707 23.1252C20.707 23.1252 20.7801 23.1238 20.7876 23.0518C20.7904 23.0214 20.8833 22.4732 20.7043 21.8384Z" fill="white"/>
<path d="M11.9327 24.2719C11.8241 24.184 11.8091 24.1619 11.7722 24.1051C11.7176 24.0186 11.6896 23.8954 11.6896 23.7389C11.6896 23.4911 11.7702 23.3132 11.9375 23.1935C11.9355 23.1942 12.1766 22.9824 12.7435 22.99C13.1418 22.9955 13.4977 23.0551 13.4977 23.0551V24.3356H13.4983C13.4983 24.3356 13.1452 24.4124 12.7476 24.4367C12.1821 24.4713 11.9307 24.2712 11.9327 24.2719ZM13.0386 22.293C12.9259 22.2847 12.7797 22.2798 12.6049 22.2798C12.3665 22.2798 12.1363 22.3103 11.9204 22.3691C11.7032 22.4279 11.5079 22.52 11.3398 22.6418C11.1711 22.7643 11.0352 22.9208 10.9368 23.1063C10.8384 23.2918 10.7886 23.5105 10.7886 23.7555C10.7886 24.0047 10.8309 24.2214 10.9156 24.3986C11.0003 24.5765 11.1226 24.7246 11.2783 24.8388C11.4327 24.953 11.6233 25.0368 11.8446 25.0873C12.0625 25.1378 12.3098 25.1635 12.5803 25.1635C12.8651 25.1635 13.1493 25.1399 13.4246 25.0922C13.6971 25.0451 14.0318 24.9766 14.1247 24.9551C14.2169 24.933 14.3194 24.9046 14.3194 24.9046C14.3884 24.8873 14.3829 24.8125 14.3829 24.8125L14.3816 22.2369C14.3816 21.6721 14.2326 21.2533 13.9396 20.9937C13.6479 20.7349 13.2183 20.604 12.6629 20.604C12.4546 20.604 12.1192 20.6331 11.9184 20.6739C11.9184 20.6739 11.3111 20.793 11.0611 20.991C11.0611 20.991 11.0065 21.0256 11.0365 21.1031L11.2333 21.6388C11.2578 21.7081 11.3241 21.6845 11.3241 21.6845C11.3241 21.6845 11.3453 21.6762 11.3699 21.6617C11.9047 21.3668 12.581 21.3758 12.581 21.3758C12.8815 21.3758 13.1124 21.4367 13.2681 21.5579C13.4198 21.6755 13.497 21.8534 13.497 22.2286V22.3476C13.2579 22.313 13.0386 22.293 13.0386 22.293Z" fill="white"/>
<path d="M35.456 20.8418C35.4771 20.7781 35.4327 20.7476 35.4143 20.7407C35.3672 20.722 35.1308 20.6715 34.9484 20.6597C34.5994 20.6383 34.4054 20.6978 34.2319 20.7767C34.0598 20.8556 33.8685 20.983 33.7619 21.1276V20.785C33.7619 20.7372 33.7285 20.6992 33.682 20.6992H32.9696C32.9231 20.6992 32.8896 20.7372 32.8896 20.785V24.9859C32.8896 25.0329 32.9279 25.0717 32.9743 25.0717H33.7046C33.751 25.0717 33.7886 25.0329 33.7886 24.9859V22.8872C33.7886 22.6054 33.8193 22.3244 33.8808 22.1479C33.9409 21.9735 34.0229 21.8337 34.124 21.7333C34.2257 21.6336 34.3412 21.5637 34.4676 21.5243C34.5967 21.4841 34.7394 21.471 34.8405 21.471C34.986 21.471 35.1459 21.509 35.1459 21.509C35.1991 21.5153 35.2292 21.482 35.2469 21.4329C35.2948 21.3041 35.43 20.9186 35.456 20.8418Z" fill="white"/>
<path d="M28.6019 18.8952C28.5131 18.8675 28.4325 18.8488 28.3273 18.8287C28.2208 18.8093 28.0937 18.7996 27.9496 18.7996C27.4469 18.7996 27.0507 18.9436 26.7727 19.2274C26.496 19.5098 26.3082 19.9397 26.2139 20.5052L26.1798 20.6955H25.5486C25.5486 20.6955 25.4721 20.6928 25.4557 20.7772L25.3525 21.3635C25.345 21.4189 25.3689 21.4542 25.4427 21.4542H26.0568L25.4338 24.9788C25.3853 25.2626 25.3293 25.4958 25.2672 25.673C25.2064 25.8475 25.1469 25.9783 25.0732 26.0738C25.0021 26.1652 24.9352 26.233 24.8191 26.2725C24.7234 26.305 24.6128 26.3202 24.4919 26.3202C24.4249 26.3202 24.3354 26.3091 24.2692 26.2953C24.2036 26.2821 24.1688 26.2676 24.1189 26.2462C24.1189 26.2462 24.0472 26.2185 24.0185 26.2911C23.996 26.3514 23.832 26.8075 23.8122 26.8636C23.7931 26.9196 23.8204 26.9633 23.8552 26.9764C23.9372 27.0055 23.998 27.0249 24.1093 27.0519C24.2637 27.0885 24.3942 27.0906 24.5165 27.0906C24.7719 27.0906 25.0055 27.0539 25.1989 26.9833C25.3928 26.912 25.5623 26.7881 25.7125 26.6206C25.8744 26.4393 25.9762 26.2496 26.0732 25.99C26.1695 25.7339 26.2522 25.4155 26.3177 25.0445L26.9441 21.4542H27.8594C27.8594 21.4542 27.9366 21.4569 27.9523 21.3718L28.0562 20.7862C28.063 20.7301 28.0398 20.6955 27.9653 20.6955H27.0766C27.0814 20.6754 27.1217 20.3584 27.2235 20.0601C27.2672 19.9334 27.3492 19.8303 27.4182 19.7597C27.4865 19.6905 27.565 19.6413 27.6511 19.6129C27.7392 19.5839 27.8396 19.57 27.9496 19.57C28.0329 19.57 28.1156 19.5797 28.1778 19.5929C28.2638 19.6116 28.2973 19.6213 28.3198 19.6282C28.4107 19.6559 28.423 19.6289 28.4407 19.5846L28.6532 18.9934C28.675 18.9298 28.6211 18.9028 28.6019 18.8952Z" fill="white"/>
<path d="M16.1853 24.9865C16.1853 25.0335 16.1518 25.0716 16.1053 25.0716H15.3683C15.3219 25.0716 15.2891 25.0335 15.2891 24.9865V18.9755C15.2891 18.9285 15.3219 18.8904 15.3683 18.8904H16.1053C16.1518 18.8904 16.1853 18.9285 16.1853 18.9755V24.9865Z" fill="white"/>
</svg>
