<svg width="48" height="46" viewBox="0 0 48 46" fill="none" xmlns="http://www.w3.org/2000/svg">
<g clip-path="url(#clip0)">
<path d="M23.9982 45.0101L32.8411 17.8098H15.1683L23.9982 45.0101Z" fill="#E24329"/>
<path d="M2.78256 17.8098L0.0897144 26.0736C-0.153965 26.824 0.109192 27.6523 0.752369 28.12L23.9984 45.0099L2.78256 17.8098Z" fill="#FCA326"/>
<path d="M2.78259 17.8101H15.1684L9.83792 1.42862C9.56509 0.590525 8.37613 0.590525 8.09349 1.42862L2.78259 17.8101Z" fill="#E24329"/>
<path d="M45.2271 17.8098L47.9103 26.0736C48.154 26.824 47.8908 27.6523 47.2476 28.12L23.9983 45.0099L45.2271 17.8098Z" fill="#FCA326"/>
<path d="M45.2271 17.8101H32.8413L38.162 1.42862C38.4348 0.590525 39.6238 0.590525 39.9064 1.42862L45.2271 17.8101Z" fill="#E24329"/>
<path d="M23.9983 45.0099L32.8411 17.8098H45.2271L23.9983 45.0099Z" fill="#FC6D26"/>
<path d="M23.9983 45.0099L2.78259 17.8098H15.1684L23.9983 45.0099Z" fill="#FC6D26"/>
</g>
<defs>
<clipPath id="clip0">
<rect width="48" height="46" fill="white"/>
</clipPath>
</defs>
</svg>
