<svg width="80" height="80" viewBox="0 0 80 80" fill="none" xmlns="http://www.w3.org/2000/svg">
<path d="M29.3945 57.6778C25.8589 68.2844 11.7168 68.2844 11.7168 68.2844C11.7168 68.2844 11.7168 54.1423 22.3234 50.6067" stroke="black" stroke-width="2" stroke-linecap="round" stroke-linejoin="round"/>
<path d="M61.2137 32.9289L40.0005 54.1421L25.8584 39.9999L47.0716 18.7867C55.1041 10.7542 63.1367 10.8325 66.5623 11.3436C67.0898 11.4223 67.578 11.6682 67.9551 12.0453C68.3322 12.4224 68.5782 12.9106 68.6568 13.4381C69.1679 16.8638 69.2463 24.8963 61.2137 32.9289Z" stroke="black" stroke-width="2" stroke-linecap="round" stroke-linejoin="round"/>
<path d="M57.6777 36.4646V56.6423C57.6777 56.9706 57.613 57.2957 57.4874 57.599C57.3617 57.9023 57.1776 58.1779 56.9454 58.4101L46.8386 68.5169C46.5187 68.8368 46.1179 69.064 45.679 69.174C45.24 69.2841 44.7795 69.273 44.3464 69.1418C43.9133 69.0107 43.524 68.7645 43.2198 68.4295C42.9157 68.0944 42.7082 67.6831 42.6194 67.2394L40 54.1423" stroke="black" stroke-width="2" stroke-linecap="round" stroke-linejoin="round"/>
<path d="M43.5354 22.3225H23.3578C23.0295 22.3225 22.7044 22.3872 22.4011 22.5128C22.0978 22.6384 21.8222 22.8226 21.59 23.0547L11.4832 33.1615C11.1632 33.4815 10.9361 33.8823 10.8261 34.3212C10.716 34.7601 10.7271 35.2207 10.8582 35.6537C10.9894 36.0868 11.2356 36.4762 11.5706 36.7803C11.9057 37.0845 12.317 37.292 12.7607 37.3807L25.8578 40.0002" stroke="black" stroke-width="2" stroke-linecap="round" stroke-linejoin="round"/>
</svg>
