<svg width="80" height="80" viewBox="0 0 80 80" fill="none" xmlns="http://www.w3.org/2000/svg">
<path d="M40 40L70 10" stroke="black" stroke-width="2" stroke-linecap="round" stroke-linejoin="round"/>
<path d="M61.2122 18.7868C55.898 13.4831 48.7867 10.3671 41.2852 10.0554C33.7837 9.74364 26.4384 12.2588 20.7025 17.1033C14.9666 21.9478 11.2579 28.7687 10.3101 36.2167C9.36238 43.6646 11.2446 51.197 15.5844 57.3236C19.9242 63.4503 26.4055 67.7249 33.746 69.3019C41.0865 70.8788 48.7515 69.6432 55.2247 65.8394C61.6978 62.0357 66.5075 55.9409 68.7022 48.7609C70.8969 41.5808 70.3168 33.8385 67.0766 27.0657" stroke="black" stroke-width="2" stroke-linecap="round" stroke-linejoin="round"/>
<path d="M50.6067 29.3933C48.1268 26.9135 44.8564 25.3811 41.3639 25.0623C37.8714 24.7436 34.3776 25.6587 31.4898 27.6485C28.602 29.6384 26.5027 32.5773 25.5568 35.9544C24.611 39.3314 24.8783 42.9331 26.3124 46.1335C27.7465 49.3339 30.2567 51.9307 33.4066 53.4724C36.5566 55.0141 40.1472 55.4033 43.5544 54.5725C46.9615 53.7416 49.9699 51.7431 52.0565 48.9244C54.1431 46.1056 55.176 42.6448 54.9758 39.1436" stroke="black" stroke-width="2" stroke-linecap="round" stroke-linejoin="round"/>
</svg>
