<svg width="80" height="80" viewBox="0 0 80 80" fill="none" xmlns="http://www.w3.org/2000/svg">
<path d="M27.5 50C36.4746 50 43.75 42.7246 43.75 33.75C43.75 24.7754 36.4746 17.5 27.5 17.5C18.5254 17.5 11.25 24.7754 11.25 33.75C11.25 42.7246 18.5254 50 27.5 50Z" stroke="black" stroke-width="2" stroke-miterlimit="10"/>
<path d="M48.5664 18.1054C50.8015 17.4756 53.1455 17.3322 55.4407 17.6847C57.7359 18.0371 59.9289 18.8774 61.872 20.1487C63.8151 21.4201 65.4632 23.0932 66.7052 25.0551C67.9473 27.0171 68.7545 29.2224 69.0725 31.5226C69.3905 33.8228 69.2119 36.1645 68.5487 38.3899C67.8855 40.6152 66.7531 42.6726 65.2278 44.4235C63.7025 46.1743 61.8197 47.578 59.7063 48.54C57.5928 49.5019 55.2977 49.9998 52.9757 50.0001" stroke="black" stroke-width="2" stroke-linecap="round" stroke-linejoin="round"/>
<path d="M4.99902 61.6865C7.53694 58.0765 10.9062 55.1301 14.8223 53.0961C18.7384 51.0621 23.0864 50.0002 27.4993 50C31.9121 49.9998 36.2602 51.0614 40.1765 53.0951C44.0928 55.1288 47.4622 58.0749 50.0004 61.6848" stroke="black" stroke-width="2" stroke-linecap="round" stroke-linejoin="round"/>
<path d="M52.9766 50C57.3898 49.9968 61.7388 51.0571 65.6554 53.0911C69.572 55.125 72.9408 58.0728 75.4767 61.6848" stroke="black" stroke-width="2" stroke-linecap="round" stroke-linejoin="round"/>
</svg>
