<svg width="80" height="80" viewBox="0 0 80 80" fill="none" xmlns="http://www.w3.org/2000/svg">
<path d="M62.5 70C66.6421 70 70 66.6421 70 62.5C70 58.3579 66.6421 55 62.5 55C58.3579 55 55 58.3579 55 62.5C55 66.6421 58.3579 70 62.5 70Z" stroke="black" stroke-width="2" stroke-linecap="round" stroke-linejoin="round"/>
<path d="M22.5 17.5H52.5C55.1522 17.5 57.6957 18.5536 59.5711 20.4289C61.4464 22.3043 62.5 24.8478 62.5 27.5C62.5 30.1522 61.4464 32.6957 59.5711 34.5711C57.6957 36.4464 55.1522 37.5 52.5 37.5H22.5C19.1848 37.5 16.0054 38.817 13.6612 41.1612C11.317 43.5054 10 46.6848 10 50C10 53.3152 11.317 56.4946 13.6612 58.8388C16.0054 61.183 19.1848 62.5 22.5 62.5H55" stroke="black" stroke-width="2" stroke-linecap="round" stroke-linejoin="round"/>
</svg>
