<svg width="157" height="40" viewBox="0 0 157 40" fill="none" xmlns="http://www.w3.org/2000/svg">
<path fill-rule="evenodd" clip-rule="evenodd" d="M17.927 0.205992C15.8182 -0.354672 13.5703 0.247638 12.0244 1.78758L1.80456 11.9678C1.513 12.2583 1.25472 12.5738 1.03124 12.9087C0.99308 12.9659 0.955937 13.0236 0.919816 13.0819C0.0390531 14.503 -0.23432 16.2442 0.209063 17.899L3.92021 31.7492C4.48827 33.8692 6.14616 35.5239 8.26727 36.0878L21.5312 39.6143L21.5461 39.6182L21.6411 39.6434L21.6838 39.6546L22.2082 39.794C24.317 40.3547 26.5648 39.7524 28.1108 38.2124L38.3306 28.0322C39.8856 26.4832 40.494 24.2213 39.9259 22.1013L36.2148 8.25107C35.6467 6.13106 33.9888 4.47638 31.8677 3.91244L17.927 0.205992ZM13.5097 3.87155C13.446 3.92893 13.3836 3.9878 13.3226 4.048L3.58123 13.7516C3.07083 14.2601 2.73345 14.8988 2.5925 15.5809C2.57924 15.6451 2.56771 15.7097 2.55795 15.7746C2.4852 16.2582 2.51018 16.759 2.64096 17.2471L6.35211 31.0974C6.68693 32.3469 7.66409 33.3222 8.91428 33.6546L22.2304 37.1949C22.3039 37.2137 22.3779 37.231 22.4521 37.2468C23.491 37.4322 24.5093 36.7673 24.7418 35.7178L26.1865 29.195C26.3121 28.628 26.2992 28.0391 26.1489 27.4781L21.5952 10.4834C21.4449 9.92249 21.1616 9.40603 20.7694 8.97779L16.2567 4.05121C15.5308 3.25867 14.3167 3.19195 13.5097 3.87155ZM28.6445 29.7394L27.4286 34.1265L31.2955 27.8627C31.8667 26.9995 32.0404 25.9329 31.7725 24.933L27.7379 9.87575C27.47 8.87594 26.7863 8.039 25.86 7.57706L19.3792 4.08595L22.6258 7.27732C23.2913 8.00389 23.7719 8.88014 24.027 9.83186L28.5807 26.8265C28.8357 27.7782 28.8576 28.7774 28.6445 29.7394ZM33.117 29.6721L36.5539 26.2485C37.4704 25.3356 37.829 24.0024 37.4942 22.7529L33.783 8.90265C33.4482 7.65311 32.4711 6.67784 31.2209 6.34545L26.5313 5.09863L26.9835 5.32414C28.5551 6.10787 29.7151 7.52786 30.1697 9.22417L34.2043 24.2815C34.6588 25.9778 34.3641 27.7875 33.395 29.2521L33.117 29.6721ZM57.9377 28.7874C60.5365 28.7874 62.8428 27.9104 64.6945 26.4811C65.8964 28.1053 67.9754 28.7874 70.1843 28.7874V26.2212C68.6251 26.2212 67.4881 25.8963 66.5461 24.6295C68.1378 22.6154 69.0473 20.0167 69.0473 17.0931C69.0473 10.4988 64.3371 5.39876 57.9377 5.39876C51.5383 5.39876 46.8281 10.4988 46.8281 17.0931C46.8281 23.6874 51.5383 28.7874 57.9377 28.7874ZM57.9377 26.3511C53.0326 26.3511 49.5568 22.2906 49.5568 17.0931C49.5568 11.8956 53.0326 7.83508 57.9377 7.83508C62.8428 7.83508 66.3187 11.8956 66.3187 17.0931C66.3187 18.9447 65.8639 20.6339 65.0843 22.0632C64.6945 21.4135 64.1097 20.6989 63.3301 20.0167C61.9658 18.8148 60.439 18.2625 57.6454 18.2625V20.8288C59.6594 20.8288 60.6989 21.2511 61.446 21.8033C62.1932 22.3556 62.7779 23.2976 63.3301 24.2721C61.9008 25.539 60.0492 26.3511 57.9377 26.3511ZM77.7361 28.7874C80.5623 28.7874 82.2514 27.618 83.1935 26.3511C83.2585 27.0983 83.4209 27.9104 83.8107 28.4626H86.4094C86.0196 27.618 85.7922 26.3836 85.7922 24.8568V16.346C85.7922 12.7402 83.4534 10.9861 79.2954 10.9861C76.047 10.9861 73.773 12.5453 72.6686 14.137L74.4877 15.7288C75.4947 14.2995 77.054 13.3249 79.2954 13.3249C81.9916 13.3249 83.1935 14.2995 83.1935 15.7937C83.1935 17.5804 81.8292 18.4899 78.4508 18.4899C75.0075 18.4899 71.889 19.9842 71.889 23.6224C71.889 26.9358 74.3903 28.7874 77.7361 28.7874ZM77.9635 26.5135C75.982 26.5135 74.4877 25.4091 74.4877 23.6224C74.4877 21.6734 75.917 20.6664 78.4508 20.6664C81.1795 20.6664 82.5438 20.309 83.1935 19.432V21.6084C83.1935 24.532 81.4718 26.5135 77.9635 26.5135ZM97.5181 28.4951C96.9333 28.69 96.2512 28.7874 95.1142 28.7874C92.9053 28.7874 90.6964 27.9429 90.6964 23.8174V13.6498H87.7078V11.3109H90.6964V5.7236H93.2951V11.3109H97.5181V13.6498H93.2951V23.8498C93.2951 25.604 94.0422 26.4486 95.4391 26.4486C96.3486 26.4486 96.9333 26.3186 97.5181 26.1562V28.4951ZM105.242 28.7874C108.069 28.7874 109.758 27.618 110.7 26.3511C110.765 27.0983 110.927 27.9104 111.317 28.4626H113.916C113.526 27.618 113.299 26.3836 113.299 24.8568V16.346C113.299 12.7402 110.96 10.9861 106.802 10.9861C103.553 10.9861 101.279 12.5453 100.175 14.137L101.994 15.7288C103.001 14.2995 104.56 13.3249 106.802 13.3249C109.498 13.3249 110.7 14.2995 110.7 15.7937C110.7 17.5804 109.335 18.4899 105.957 18.4899C102.514 18.4899 99.3953 19.9842 99.3953 23.6224C99.3953 26.9358 101.897 28.7874 105.242 28.7874ZM105.47 26.5135C103.488 26.5135 101.994 25.4091 101.994 23.6224C101.994 21.6734 103.423 20.6664 105.957 20.6664C108.686 20.6664 110.05 20.309 110.7 19.432V21.6084C110.7 24.532 108.978 26.5135 105.47 26.5135ZM119.371 28.4626H116.772V5.39876H119.371V28.4626ZM130.553 28.7874C135.393 28.7874 138.934 25.1817 138.934 19.8868C138.934 14.5593 135.393 10.9861 130.553 10.9861C125.713 10.9861 122.172 14.5593 122.172 19.8868C122.172 25.1817 125.713 28.7874 130.553 28.7874ZM130.553 26.4486C127.012 26.4486 124.771 23.525 124.771 19.8868C124.771 16.216 127.012 13.3249 130.553 13.3249C134.094 13.3249 136.335 16.216 136.335 19.8868C136.335 23.525 134.094 26.4486 130.553 26.4486ZM153.824 13.0326L154.442 11.3109H156.781V26.611C156.781 31.2563 154.214 34.6346 148.659 34.6346C145.703 34.6346 143.04 33.5302 141.221 31.4836L143.17 29.5671C144.631 31.3862 146.613 32.2957 148.659 32.2957C152.817 32.2957 154.182 29.762 154.182 26.546V25.9938C152.85 27.7155 150.933 28.5925 148.562 28.5925C143.787 28.5925 140.636 24.8568 140.636 19.7893C140.636 14.7217 143.787 10.9861 148.562 10.9861C151.161 10.9861 152.817 11.7982 153.824 13.0326ZM143.235 19.7893C143.235 23.3951 145.054 26.2537 148.757 26.2537C152.46 26.2537 154.344 23.3951 154.344 19.7893C154.344 16.1835 152.46 13.3249 148.757 13.3249C145.054 13.3249 143.235 16.1835 143.235 19.7893Z" fill="white"/>
</svg>
